<?xml version="1.0" encoding="UTF-8"?>
<svg id="Layer_2" data-name="Layer 2" xmlns="http://www.w3.org/2000/svg" viewBox="0 0 205.15 89.08">
  <defs>
    <style>
      .cls-1 {
        fill: #231f20;
      }
    </style>
  </defs>
  <g id="Layer_1-2" data-name="Layer 1">
    <g>
      <g>
        <path class="cls-1" d="M27.21,53.96c-3.88,0-7.48-.63-10.8-1.9s-6.21-3.07-8.65-5.42-4.34-5.1-5.71-8.26c-1.36-3.16-2.05-6.63-2.05-10.41s.68-7.25,2.05-10.41c1.36-3.16,3.28-5.91,5.74-8.25,2.46-2.34,5.35-4.15,8.65-5.42,3.3-1.27,6.92-1.9,10.84-1.9,4.35,0,8.29.75,11.81,2.26,3.52,1.51,6.47,3.72,8.87,6.64l-7.46,6.89c-1.72-1.96-3.64-3.43-5.74-4.41-2.11-.98-4.4-1.47-6.89-1.47-2.35,0-4.5.38-6.46,1.15-1.96.77-3.66,1.87-5.1,3.3s-2.55,3.13-3.34,5.1c-.79,1.96-1.18,4.14-1.18,6.53s.4,4.57,1.18,6.53c.79,1.96,1.9,3.66,3.34,5.1s3.13,2.54,5.1,3.3c1.96.77,4.12,1.15,6.46,1.15,2.49,0,4.78-.49,6.89-1.47,2.11-.98,4.02-2.48,5.74-4.49l7.46,6.89c-2.39,2.92-5.35,5.14-8.87,6.68s-7.48,2.3-11.88,2.3Z"/>
        <g>
          <path class="cls-1" d="M146.87,36.95c3.25-1.44,5.77-3.5,7.54-6.21,1.77-2.7,2.66-5.92,2.66-9.65,0-5.69-1.94-10.16-5.81-13.39-3.88-3.23-9.31-4.85-16.29-4.85h-21.46v50.25h11.63v-14h10.12c.18,0,.36,0,.54-.01l9.65,14.01h12.56l-11.23-16.11s.07-.03.1-.04ZM142.63,14.63c1.77,1.53,2.66,3.69,2.66,6.46s-.89,4.87-2.66,6.42c-1.77,1.56-4.45,2.33-8.04,2.33h-9.47V12.33h9.47c3.59,0,6.27.77,8.04,2.3Z"/>
          <polygon class="cls-1" points="177.81 43.77 177.81 32.14 201.13 32.14 201.13 23.1 177.81 23.1 177.81 12.19 204.22 12.19 204.22 2.86 166.25 2.86 166.25 53.1 205.15 53.1 205.15 43.77 177.81 43.77"/>
        </g>
      </g>
      <g>
        <path class="cls-1" d="M116.68,78.05c-.57-.36-1.39-.54-2.46-.54h-4.61v4.43h4.61c1.07,0,1.89-.18,2.46-.53.57-.35.86-.91.86-1.69s-.29-1.32-.86-1.68Z"/>
        <polygon class="cls-1" points="87.64 78.39 93.4 78.39 90.51 71.67 87.64 78.39"/>
        <path class="cls-1" d="M115.94,74.77c.53-.35.8-.88.8-1.58s-.27-1.25-.8-1.6c-.53-.35-1.3-.53-2.29-.53h-4.04v4.24h4.04c1,0,1.76-.18,2.29-.53Z"/>
        <path class="cls-1" d="M0,63.93v25.16h205.15v-25.16H0ZM76.18,84.19h-10.89v-15.37h2.85v12.95h8.04v2.42ZM95.89,84.19l-1.53-3.56h-7.69l-1.52,3.56h-2.94l6.92-15.37h2.81l6.94,15.37h-2.99ZM118.9,83.09c-1.01.73-2.51,1.1-4.5,1.1h-7.64v-15.37h7.2c1.84,0,3.25.36,4.22,1.09.97.72,1.45,1.69,1.45,2.91,0,.82-.19,1.52-.57,2.1-.36.55-.85.97-1.44,1.28.19.06.38.13.56.21.69.31,1.23.77,1.63,1.37s.6,1.35.6,2.24c0,1.32-.51,2.34-1.52,3.07ZM139.7,82.11c-.45.7-1.13,1.25-2.05,1.67-.92.42-2.09.63-3.49.63-1.2,0-2.35-.17-3.45-.52s-1.97-.79-2.61-1.33l.99-2.22c.62.48,1.38.89,2.28,1.21.91.32,1.84.48,2.79.48.81,0,1.46-.09,1.95-.26.5-.18.86-.41,1.1-.71s.35-.64.35-1.02c0-.47-.17-.85-.51-1.13-.34-.29-.77-.51-1.31-.68-.53-.17-1.13-.33-1.78-.47-.65-.15-1.3-.32-1.95-.52-.65-.2-1.24-.45-1.78-.77-.53-.31-.97-.74-1.31-1.26-.34-.53-.51-1.2-.51-2.02s.22-1.6.67-2.29c.45-.7,1.13-1.25,2.04-1.67s2.07-.63,3.48-.63c.92,0,1.84.12,2.74.35.91.23,1.7.57,2.37,1.01l-.9,2.22c-.69-.41-1.4-.71-2.13-.91s-1.43-.3-2.11-.3c-.79,0-1.43.1-1.92.29s-.85.44-1.08.75c-.23.31-.34.66-.34,1.05,0,.47.16.85.49,1.13s.76.51,1.29.67c.53.16,1.13.32,1.79.47.66.15,1.31.33,1.96.52.65.19,1.24.44,1.78.75.53.31.97.72,1.29,1.25.33.53.49,1.19.49,2s-.22,1.58-.67,2.27Z"/>
      </g>
      <g>
        <path class="cls-1" d="M92.2,35.4c.01-.15.02-.31.02-.46-.03-2.16.81-4.38,2.37-5.9.76-.74,1.51-1.49,2.24-2.25,1.49-1.52,3.55-2.28,5.67-2.07.12.01.23.02.35.02,2.01.05,3.94-1.49,3.45-3.64-.49-2.12-1.11-4.55-4.75-4.49-.12,0-.23-.04-.34-.06-2.23-.29-4.3-1.44-5.86-3.03-.8-.83-1.58-1.68-2.36-2.53-1.46-1.64-2.59-3.67-2.97-5.85-.02-.13-.05-.26-.09-.4-.31-1.13-1.02-2.14-1.84-2.96-.77-.77-1.75-1.46-2.82-1.7-2.15-.48-3.54,1.47-3.48,3.42.08,2.48,2.24,4.56,4.68,4.87.03,0,.06,0,.09.01,2.07.23,3.92,1.37,5.33,2.87,1.1,1.2,2.18,2.43,3.31,3.6,1.4,1.47,2.59,3.3,2.83,5.35,0,0,0,.02,0,.03,0,0,0,.02,0,.03.24,1.91-.41,3.71-1.72,5.13-1.02,1.09-2.03,2.19-3.09,3.23-1.51,1.48-3.59,2.26-5.68,2.34-.03,0-.06,0-.1,0-2.67.13-5.1,2.23-5.14,5-.04,2.61,2.17,4.66,4.76,4.47,2.58-.19,4.9-2.44,5.14-5.02Z"/>
        <path class="cls-1" d="M70.98,40.42c.16.02.33.02.49.02,2.26-.02,4.67.78,6.26,2.44.74.77,1.48,1.55,2.23,2.32,1.43,1.52,2.16,3.56,1.87,5.64-.02.11-.03.23-.03.34-.08,1.37.65,2.87,2.02,3.32,1.55.5,3.75-.31,4.9-1.33.67-.6.95-1.44,1.19-2.31.22-.79.09-1.56.33-2.36.53-1.74,1.52-3.36,2.75-4.7.78-.85,1.57-1.7,2.38-2.53,1.54-1.57,3.6-2.72,5.79-3.05.13-.02.26-.06.41-.08,2.95-.38,4.25-2.48,4.73-4.61.2-.88,0-1.82-.64-2.47-.73-.73-1.78-.97-2.77-.91-2.4.13-4.53,2.15-4.88,4.54,0,.03,0,.06-.01.08-.25,2.03-1.44,3.84-2.84,5.28-1.15,1.16-2.23,2.38-3.34,3.58-1.4,1.47-3.22,2.62-5.27,2.85,0,0-.02,0-.03,0,0,0-.02,0-.03,0-1.92.22-3.74-.43-5.13-1.79-1.06-1.07-2.08-2.16-3.14-3.22-1.48-1.46-2.34-3.48-2.39-5.54,0-.03,0-.06,0-.09-.11-2.76-2.58-4.84-5.27-4.9-2.52-.06-4.84,1.78-4.65,4.43.19,2.59,2.51,4.83,5.06,5.06Z"/>
        <path class="cls-1" d="M63.45,6.54c-.87,2.24-2.92,4.29-5.16,5.16-.43.17-1.52.61-1.92.14-.38-.44.32-1.25.57-1.57.72-.95,1.59-1.8,2.44-2.65.85-.85,1.7-1.72,2.65-2.44.32-.25,1.13-.94,1.57-.55.47.41.03,1.47-.13,1.91Z"/>
        <path class="cls-1" d="M101.19,10.27c.24.31.94,1.13.57,1.56-.41.47-1.49.02-1.92-.15-2.25-.88-4.29-2.94-5.16-5.18-.17-.43-.61-1.48-.13-1.88.44-.37,1.25.33,1.57.57.95.72,1.81,1.59,2.65,2.44.85.85,1.71,1.7,2.44,2.65Z"/>
        <path class="cls-1" d="M63.46,48.13c.17.42.6,1.47.13,1.87-.44.38-1.25-.31-1.57-.56-.95-.72-1.8-1.59-2.65-2.44-.85-.85-1.72-1.7-2.44-2.65-.24-.31-.94-1.13-.55-1.55.42-.46,1.51,0,1.93.18,2.22.89,4.27,2.92,5.15,5.15Z"/>
        <path class="cls-1" d="M101.19,44.36c-.72.95-1.59,1.81-2.44,2.65-.85.85-1.7,1.71-2.65,2.43-.32.24-1.13.94-1.57.58-.47-.39-.04-1.43.13-1.85.88-2.23,2.93-4.27,5.15-5.17.43-.17,1.51-.65,1.93-.19.39.42-.32,1.24-.55,1.55Z"/>
        <path class="cls-1" d="M71.67,46.45s-.06,0-.1-.01c-2.2-.25-4.19-1.49-5.69-3.08-.89-.96-1.76-1.93-2.68-2.86-1.52-1.55-2.8-3.48-3.08-5.68,0,0,0-.02,0-.03,0-.03,0-.06-.01-.09-.29-2.04.39-3.99,1.88-5.44.75-.7,1.5-1.39,2.21-2.13,1.62-1.71,3.93-2.56,6.25-2.55.04,0,.08,0,.12,0,2.8-.03,5.21-2.3,5.26-5.13.05-2.68-2.06-5.08-4.82-4.89-2.68.18-4.97,2.63-5.16,5.28,0,.04,0,.07,0,.11-.11,2.24-.96,4.57-2.56,6.18-.74.74-1.49,1.48-2.27,2.19-1.55,1.4-3.59,2.03-5.67,1.84-.03,0-.06,0-.08,0-.99-.07-2.06.17-2.79.9-.66.66-.83,1.57-.66,2.47.59,3.04,2.03,4.21,4.78,4.61.05,0,.11.02.16.04,2.28.47,4.38,1.66,6.01,3.31.75.77,1.48,1.55,2.21,2.33,1.5,1.65,2.71,3.69,3.18,5.89.02.07.03.15.05.23.55,2.05,2.53,4.17,4.63,4.63,2.12.46,3.54-1.37,3.48-3.33-.08-2.44-2.29-4.46-4.66-4.77Z"/>
        <path class="cls-1" d="M87.19,14.66c-.16-.01-.33-.02-.5-.01-2.33.07-4.71-.85-6.31-2.57-.74-.8-1.46-1.6-2.2-2.4-1.44-1.59-2.16-3.65-1.88-5.79.02-.12.03-.23.03-.35.09-1.98-1.32-3.94-3.49-3.46-1.09.24-2.51.66-3.29,1.45-.82.83-1.08,2.16-1.37,3.3-.03.11-.05.22-.07.33-.38,2.18-1.54,4.26-3.01,5.9-.77.85-1.56,1.68-2.36,2.51-1.56,1.58-3.6,2.7-5.81,2.99-.13.02-.26.07-.41.07-2.8.02-4.24,2.37-4.7,4.49-.47,2.17,1.4,3.62,3.4,3.63,2.45,0,4.53-2.03,4.87-4.43,0-.03,0-.06.01-.08.26-2.07,1.43-3.91,2.85-5.39,1.13-1.17,2.21-2.39,3.31-3.6,1.39-1.49,3.23-2.68,5.3-2.9,0,0,.02,0,.03,0,0,0,.02,0,.03,0,1.94-.22,3.79.45,5.17,1.85,1.07,1.11,2.09,2.27,3.12,3.41,1.47,1.63,2.34,3.74,2.4,5.92,0,.03,0,.07,0,.1.11,2.8,2.49,5.04,5.28,5.04,2.63,0,4.86-2.07,4.68-4.76-.17-2.63-2.44-5.02-5.08-5.24Z"/>
      </g>
    </g>
  </g>
</svg>